<mxfile host="Electron" modified="2024-04-29T01:21:28.647Z" agent="Mozilla/5.0 (Windows NT 10.0; Win64; x64) AppleWebKit/537.36 (KHTML, like Gecko) draw.io/24.2.5 Chrome/120.0.6099.109 Electron/28.1.0 Safari/537.36" etag="W8CSGtO3Yj2qpYvY192t" version="24.2.5" type="device">
  <diagram id="C5RBs43oDa-KdzZeNtuy" name="Page-1">
    <mxGraphModel dx="2026" dy="1183" grid="1" gridSize="10" guides="1" tooltips="1" connect="1" arrows="1" fold="1" page="1" pageScale="1" pageWidth="827" pageHeight="1169" math="0" shadow="0">
      <root>
        <mxCell id="WIyWlLk6GJQsqaUBKTNV-0" />
        <mxCell id="WIyWlLk6GJQsqaUBKTNV-1" parent="WIyWlLk6GJQsqaUBKTNV-0" />
        <mxCell id="Hs2GCKyb2eNE21YgtbiW-0" value="Incio Promedio" style="strokeWidth=2;html=1;shape=mxgraph.flowchart.terminator;whiteSpace=wrap;" vertex="1" parent="WIyWlLk6GJQsqaUBKTNV-1">
          <mxGeometry x="320" y="10" width="150" height="40" as="geometry" />
        </mxCell>
        <mxCell id="Hs2GCKyb2eNE21YgtbiW-1" value="Fin Promedio" style="strokeWidth=2;html=1;shape=mxgraph.flowchart.terminator;whiteSpace=wrap;" vertex="1" parent="WIyWlLk6GJQsqaUBKTNV-1">
          <mxGeometry x="320" y="1100" width="150" height="50" as="geometry" />
        </mxCell>
        <mxCell id="Hs2GCKyb2eNE21YgtbiW-3" value="nota_1" style="shape=parallelogram;html=1;strokeWidth=2;perimeter=parallelogramPerimeter;whiteSpace=wrap;rounded=1;arcSize=12;size=0.23;" vertex="1" parent="WIyWlLk6GJQsqaUBKTNV-1">
          <mxGeometry x="330" y="100" width="140" height="84" as="geometry" />
        </mxCell>
        <mxCell id="Hs2GCKyb2eNE21YgtbiW-4" value="nota_2" style="shape=parallelogram;html=1;strokeWidth=2;perimeter=parallelogramPerimeter;whiteSpace=wrap;rounded=1;arcSize=12;size=0.23;" vertex="1" parent="WIyWlLk6GJQsqaUBKTNV-1">
          <mxGeometry x="325" y="230" width="140" height="84" as="geometry" />
        </mxCell>
        <mxCell id="Hs2GCKyb2eNE21YgtbiW-5" value="nota_3" style="shape=parallelogram;html=1;strokeWidth=2;perimeter=parallelogramPerimeter;whiteSpace=wrap;rounded=1;arcSize=12;size=0.23;" vertex="1" parent="WIyWlLk6GJQsqaUBKTNV-1">
          <mxGeometry x="320" y="360" width="140" height="84" as="geometry" />
        </mxCell>
        <mxCell id="Hs2GCKyb2eNE21YgtbiW-18" style="edgeStyle=orthogonalEdgeStyle;rounded=0;orthogonalLoop=1;jettySize=auto;html=1;entryX=0.5;entryY=0;entryDx=0;entryDy=0;" edge="1" parent="WIyWlLk6GJQsqaUBKTNV-1" source="Hs2GCKyb2eNE21YgtbiW-6" target="Hs2GCKyb2eNE21YgtbiW-7">
          <mxGeometry relative="1" as="geometry" />
        </mxCell>
        <mxCell id="Hs2GCKyb2eNE21YgtbiW-6" value="nota_4" style="shape=parallelogram;html=1;strokeWidth=2;perimeter=parallelogramPerimeter;whiteSpace=wrap;rounded=1;arcSize=12;size=0.23;" vertex="1" parent="WIyWlLk6GJQsqaUBKTNV-1">
          <mxGeometry x="320" y="490" width="140" height="84" as="geometry" />
        </mxCell>
        <mxCell id="Hs2GCKyb2eNE21YgtbiW-7" value="nota_5" style="shape=parallelogram;html=1;strokeWidth=2;perimeter=parallelogramPerimeter;whiteSpace=wrap;rounded=1;arcSize=12;size=0.23;" vertex="1" parent="WIyWlLk6GJQsqaUBKTNV-1">
          <mxGeometry x="320" y="620" width="140" height="84" as="geometry" />
        </mxCell>
        <mxCell id="Hs2GCKyb2eNE21YgtbiW-20" style="edgeStyle=orthogonalEdgeStyle;rounded=0;orthogonalLoop=1;jettySize=auto;html=1;entryX=0.5;entryY=0;entryDx=0;entryDy=0;" edge="1" parent="WIyWlLk6GJQsqaUBKTNV-1" source="Hs2GCKyb2eNE21YgtbiW-9" target="Hs2GCKyb2eNE21YgtbiW-10">
          <mxGeometry relative="1" as="geometry" />
        </mxCell>
        <mxCell id="Hs2GCKyb2eNE21YgtbiW-9" value="suma = nota_1 + nota_2 + nota_3 + nota_4 + nota_5" style="rounded=1;whiteSpace=wrap;html=1;" vertex="1" parent="WIyWlLk6GJQsqaUBKTNV-1">
          <mxGeometry x="240" y="750" width="300" height="60" as="geometry" />
        </mxCell>
        <mxCell id="Hs2GCKyb2eNE21YgtbiW-10" value="promedio = suma / 5" style="rounded=1;whiteSpace=wrap;html=1;" vertex="1" parent="WIyWlLk6GJQsqaUBKTNV-1">
          <mxGeometry x="285" y="860" width="210" height="60" as="geometry" />
        </mxCell>
        <mxCell id="Hs2GCKyb2eNE21YgtbiW-11" value="promedio" style="shape=document;whiteSpace=wrap;html=1;boundedLbl=1;" vertex="1" parent="WIyWlLk6GJQsqaUBKTNV-1">
          <mxGeometry x="335" y="970" width="120" height="80" as="geometry" />
        </mxCell>
        <mxCell id="Hs2GCKyb2eNE21YgtbiW-13" style="edgeStyle=orthogonalEdgeStyle;rounded=0;orthogonalLoop=1;jettySize=auto;html=1;entryX=0.471;entryY=0.005;entryDx=0;entryDy=0;entryPerimeter=0;" edge="1" parent="WIyWlLk6GJQsqaUBKTNV-1" source="Hs2GCKyb2eNE21YgtbiW-0" target="Hs2GCKyb2eNE21YgtbiW-3">
          <mxGeometry relative="1" as="geometry" />
        </mxCell>
        <mxCell id="Hs2GCKyb2eNE21YgtbiW-14" style="edgeStyle=orthogonalEdgeStyle;rounded=0;orthogonalLoop=1;jettySize=auto;html=1;entryX=0.539;entryY=-0.003;entryDx=0;entryDy=0;entryPerimeter=0;" edge="1" parent="WIyWlLk6GJQsqaUBKTNV-1" source="Hs2GCKyb2eNE21YgtbiW-3" target="Hs2GCKyb2eNE21YgtbiW-4">
          <mxGeometry relative="1" as="geometry" />
        </mxCell>
        <mxCell id="Hs2GCKyb2eNE21YgtbiW-15" style="edgeStyle=orthogonalEdgeStyle;rounded=0;orthogonalLoop=1;jettySize=auto;html=1;entryX=0.538;entryY=0.013;entryDx=0;entryDy=0;entryPerimeter=0;" edge="1" parent="WIyWlLk6GJQsqaUBKTNV-1" source="Hs2GCKyb2eNE21YgtbiW-4" target="Hs2GCKyb2eNE21YgtbiW-5">
          <mxGeometry relative="1" as="geometry" />
        </mxCell>
        <mxCell id="Hs2GCKyb2eNE21YgtbiW-17" style="edgeStyle=orthogonalEdgeStyle;rounded=0;orthogonalLoop=1;jettySize=auto;html=1;entryX=0.503;entryY=-0.022;entryDx=0;entryDy=0;entryPerimeter=0;" edge="1" parent="WIyWlLk6GJQsqaUBKTNV-1" source="Hs2GCKyb2eNE21YgtbiW-5" target="Hs2GCKyb2eNE21YgtbiW-6">
          <mxGeometry relative="1" as="geometry" />
        </mxCell>
        <mxCell id="Hs2GCKyb2eNE21YgtbiW-19" style="edgeStyle=orthogonalEdgeStyle;rounded=0;orthogonalLoop=1;jettySize=auto;html=1;entryX=0.5;entryY=0;entryDx=0;entryDy=0;" edge="1" parent="WIyWlLk6GJQsqaUBKTNV-1" source="Hs2GCKyb2eNE21YgtbiW-7" target="Hs2GCKyb2eNE21YgtbiW-9">
          <mxGeometry relative="1" as="geometry" />
        </mxCell>
        <mxCell id="Hs2GCKyb2eNE21YgtbiW-21" style="edgeStyle=orthogonalEdgeStyle;rounded=0;orthogonalLoop=1;jettySize=auto;html=1;entryX=0.459;entryY=0.017;entryDx=0;entryDy=0;entryPerimeter=0;" edge="1" parent="WIyWlLk6GJQsqaUBKTNV-1" source="Hs2GCKyb2eNE21YgtbiW-10" target="Hs2GCKyb2eNE21YgtbiW-11">
          <mxGeometry relative="1" as="geometry" />
        </mxCell>
        <mxCell id="Hs2GCKyb2eNE21YgtbiW-22" style="edgeStyle=orthogonalEdgeStyle;rounded=0;orthogonalLoop=1;jettySize=auto;html=1;entryX=0.504;entryY=-0.043;entryDx=0;entryDy=0;entryPerimeter=0;" edge="1" parent="WIyWlLk6GJQsqaUBKTNV-1" source="Hs2GCKyb2eNE21YgtbiW-11" target="Hs2GCKyb2eNE21YgtbiW-1">
          <mxGeometry relative="1" as="geometry" />
        </mxCell>
      </root>
    </mxGraphModel>
  </diagram>
</mxfile>
